HIERARCHY
ROOT Hips
{
    OFFSET   0.000000   0.000000   0.000000
    CHANNELS 6 Xposition Yposition Zposition Zrotation Xrotation Yrotation
    JOINT Chest
    {
        OFFSET   0.000000   8.007230   0.000000
        CHANNELS 3 Zrotation Xrotation Yrotation
        JOINT Chest2
        {
            OFFSET   0.000000  22.077100   0.000000
            CHANNELS 3 Zrotation Xrotation Yrotation
            JOINT Neck
            {
                OFFSET   0.000000  23.254800  -0.000021
                CHANNELS 3 Zrotation Xrotation Yrotation
                JOINT Head
                {
                    OFFSET   0.000000  14.370000   1.956610
                    CHANNELS 3 Zrotation Xrotation Yrotation
                    End Site
                    {
                        OFFSET   0.000000  19.566000   0.000000
                    }
                }
            }
            JOINT LeftCollar
            {
                OFFSET   3.911900  19.017000  -0.467063
                CHANNELS 3 Zrotation Xrotation Yrotation
                JOINT LeftShoulder
                {
                    OFFSET  10.383700   0.000000   0.000000
                    CHANNELS 3 Zrotation Xrotation Yrotation
                    JOINT LeftElbow
                    {
                        OFFSET  26.662100   0.001529   0.000325
                        CHANNELS 3 Zrotation Xrotation Yrotation
                        JOINT LeftWrist
                        {
                            OFFSET  28.869000  -0.000011  -0.000096
                            CHANNELS 3 Zrotation Xrotation Yrotation
                            JOINT LeftFinger0
                            {
                                OFFSET   2.044650  -2.323460   3.252850
                                CHANNELS 3 Zrotation Xrotation Yrotation
                                JOINT LeftFinger01
                                {
                                    OFFSET   3.088130   0.000000   0.000000
                                    CHANNELS 3 Zrotation Xrotation Yrotation
                                    JOINT LeftFinger02
                                    {
                                        OFFSET   2.639460   0.000000   0.000000
                                        CHANNELS 3 Zrotation Xrotation Yrotation
                                        End Site
                                        {
                                            OFFSET   2.582190   0.000000   0.000000
                                        }
                                    }
                                }
                            }
                            JOINT LeftFinger1
                            {
                                OFFSET   8.364480   0.000000   3.252850
                                CHANNELS 3 Zrotation Xrotation Yrotation
                                JOINT LeftFinger11
                                {
                                    OFFSET   4.646930   0.000000   0.000000
                                    CHANNELS 3 Zrotation Xrotation Yrotation
                                    JOINT LeftFinger12
                                    {
                                        OFFSET   2.323460   0.000000   0.000000
                                        CHANNELS 3 Zrotation Xrotation Yrotation
                                        End Site
                                        {
                                            OFFSET   2.273050   0.000000   0.000000
                                        }
                                    }
                                }
                            }
                            JOINT LeftFinger2
                            {
                                OFFSET   8.364480   0.000016   1.078090
                                CHANNELS 3 Zrotation Xrotation Yrotation
                                JOINT LeftFinger21
                                {
                                    OFFSET   5.111620   0.000000   0.000000
                                    CHANNELS 3 Zrotation Xrotation Yrotation
                                    JOINT LeftFinger22
                                    {
                                        OFFSET   2.788160   0.000017   0.000000
                                        CHANNELS 3 Zrotation Xrotation Yrotation
                                        End Site
                                        {
                                            OFFSET   2.727660   0.000000   0.000000
                                        }
                                    }
                                }
                            }
                            JOINT LeftFinger3
                            {
                                OFFSET   7.899780   0.000015  -1.078090
                                CHANNELS 3 Zrotation Xrotation Yrotation
                                JOINT LeftFinger31
                                {
                                    OFFSET   4.646920   0.000000   0.000000
                                    CHANNELS 3 Zrotation Xrotation Yrotation
                                    JOINT LeftFinger32
                                    {
                                        OFFSET   2.323470   0.000000   0.000000
                                        CHANNELS 3 Zrotation Xrotation Yrotation
                                        End Site
                                        {
                                            OFFSET   2.273050   0.000000   0.000000
                                        }
                                    }
                                }
                            }
                            JOINT LeftFinger4
                            {
                                OFFSET   7.435090   0.000000  -3.252850
                                CHANNELS 3 Zrotation Xrotation Yrotation
                                JOINT LeftFinger41
                                {
                                    OFFSET   3.717550   0.000000   0.000000
                                    CHANNELS 3 Zrotation Xrotation Yrotation
                                    JOINT LeftFinger42
                                    {
                                        OFFSET   1.858760   0.000000   0.000000
                                        CHANNELS 3 Zrotation Xrotation Yrotation
                                        End Site
                                        {
                                            OFFSET   1.818440   0.000000   0.000000
                                        }
                                    }
                                }
                            }
                        }
                    }
                }
            }
            JOINT RightCollar
            {
                OFFSET  -3.911900  19.017000  -0.467062
                CHANNELS 3 Zrotation Xrotation Yrotation
                JOINT RightShoulder
                {
                    OFFSET -10.383700   0.000015   0.000000
                    CHANNELS 3 Zrotation Xrotation Yrotation
                    JOINT RightElbow
                    {
                        OFFSET -26.662100   0.001341   0.000385
                        CHANNELS 3 Zrotation Xrotation Yrotation
                        JOINT RightWrist
                        {
                            OFFSET -28.869000   0.000025  -0.000080
                            CHANNELS 3 Zrotation Xrotation Yrotation
                            JOINT RightFinger0
                            {
                                OFFSET  -2.044650  -2.323490   3.252850
                                CHANNELS 3 Zrotation Xrotation Yrotation
                                JOINT RightFinger01
                                {
                                    OFFSET  -3.088130   0.000000   0.000000
                                    CHANNELS 3 Zrotation Xrotation Yrotation
                                    JOINT RightFinger02
                                    {
                                        OFFSET  -2.639460   0.000000   0.000000
                                        CHANNELS 3 Zrotation Xrotation Yrotation
                                        End Site
                                        {
                                            OFFSET  -2.582190   0.000000   0.000000
                                        }
                                    }
                                }
                            }
                            JOINT RightFinger1
                            {
                                OFFSET  -8.364480   0.000000   3.252850
                                CHANNELS 3 Zrotation Xrotation Yrotation
                                JOINT RightFinger11
                                {
                                    OFFSET  -4.646930   0.000000   0.000000
                                    CHANNELS 3 Zrotation Xrotation Yrotation
                                    JOINT RightFinger12
                                    {
                                        OFFSET  -2.323470   0.000000   0.000000
                                        CHANNELS 3 Zrotation Xrotation Yrotation
                                        End Site
                                        {
                                            OFFSET  -2.273050   0.000000   0.000000
                                        }
                                    }
                                }
                            }
                            JOINT RightFinger2
                            {
                                OFFSET  -8.364480   0.000000   1.078090
                                CHANNELS 3 Zrotation Xrotation Yrotation
                                JOINT RightFinger21
                                {
                                    OFFSET  -5.111610   0.000000   0.000000
                                    CHANNELS 3 Zrotation Xrotation Yrotation
                                    JOINT RightFinger22
                                    {
                                        OFFSET  -2.788160   0.000000   0.000000
                                        CHANNELS 3 Zrotation Xrotation Yrotation
                                        End Site
                                        {
                                            OFFSET  -2.727660   0.000000   0.000000
                                        }
                                    }
                                }
                            }
                            JOINT RightFinger3
                            {
                                OFFSET  -7.899780   0.000000  -1.078090
                                CHANNELS 3 Zrotation Xrotation Yrotation
                                JOINT RightFinger31
                                {
                                    OFFSET  -4.646920   0.000000   0.000000
                                    CHANNELS 3 Zrotation Xrotation Yrotation
                                    JOINT RightFinger32
                                    {
                                        OFFSET  -2.323470   0.000000   0.000000
                                        CHANNELS 3 Zrotation Xrotation Yrotation
                                        End Site
                                        {
                                            OFFSET  -2.273050   0.000000   0.000000
                                        }
                                    }
                                }
                            }
                            JOINT RightFinger4
                            {
                                OFFSET  -7.435090   0.000000  -3.252850
                                CHANNELS 3 Zrotation Xrotation Yrotation
                                JOINT RightFinger41
                                {
                                    OFFSET  -3.717550   0.000000   0.000000
                                    CHANNELS 3 Zrotation Xrotation Yrotation
                                    JOINT RightFinger42
                                    {
                                        OFFSET  -1.858770   0.000000   0.000000
                                        CHANNELS 3 Zrotation Xrotation Yrotation
                                        End Site
                                        {
                                            OFFSET  -1.818440   0.000000   0.000000
                                        }
                                    }
                                }
                            }
                        }
                    }
                }
            }
        }
    }
    JOINT LeftHip
    {
        OFFSET   9.783010   0.000000   0.000000
        CHANNELS 3 Zrotation Xrotation Yrotation
        JOINT LeftKnee
        {
            OFFSET   0.000070 -41.789100   0.000028
            CHANNELS 3 Zrotation Xrotation Yrotation
            JOINT LeftAnkle
            {
                OFFSET   0.000087 -41.133200  -0.000100
                CHANNELS 3 Zrotation Xrotation Yrotation
                JOINT LeftToe
                {
                    OFFSET   0.000000  -6.358960  14.674500
                    CHANNELS 3 Zrotation Xrotation Yrotation
                    End Site
                    {
                        OFFSET   0.000000   0.000000   3.913200
                    }
                }
            }
        }
    }
    JOINT RightHip
    {
        OFFSET  -9.783020   0.000000   0.000000
        CHANNELS 3 Zrotation Xrotation Yrotation
        JOINT RightKnee
        {
            OFFSET   0.000044 -41.789100  -0.000870
            CHANNELS 3 Zrotation Xrotation Yrotation
            JOINT RightAnkle
            {
                OFFSET  -0.000090 -41.133200  -0.000245
                CHANNELS 3 Zrotation Xrotation Yrotation
                JOINT RightToe
                {
                    OFFSET   0.000000  -6.358960  14.674500
                    CHANNELS 3 Zrotation Xrotation Yrotation
                    End Site
                    {
                        OFFSET   0.000000   0.000000   3.913200
                    }
                }
            }
        }
    }
}
MOTION
Frames: 6
Frame Time:   0.016667
  4.349560  90.052900   0.529430  -4.701380 -14.150300  -9.665180  -0.935852   9.431730   0.879290  -2.063550  18.846300   1.957780   2.346630   4.821820  -0.198753   3.843970   9.734730  37.893200  -5.296960  -1.368630   4.519630 -64.230900  25.832000  -8.839580  -4.858060  -9.085880 -15.623100  14.599000   5.186460   9.183110  38.236600  27.932200 -64.932700 -26.470900  -0.015640  -0.005211  -8.235460  -0.003736   0.002011 -30.593900   7.902670 -13.094400 -25.773600   0.009397  -0.003064 -18.041500   0.006740  -0.000792 -28.628500   1.499370  -2.744250 -38.391500  -0.004354  -0.004671 -25.568700  -0.007863  -0.002920 -27.628200   1.451250  -2.769940 -30.031400   0.000396  -0.001361 -20.000900   0.001866  -0.002559 -28.476200   0.632238  -1.165140 -42.723600  -0.004116  -0.004292 -28.454000  -0.001754  -0.002474  14.494200   2.867250   9.185280  34.438700  21.845300  38.726700 -27.546100  -6.550740  84.455700 -93.740800  30.693400  81.098800 -33.128400  30.797300  71.605300  35.023400   0.004196  -0.009942  12.511800   0.003546  -0.005516  14.814700   3.236570  12.014300  12.430000  -0.010317   0.004678   8.700980  -0.005256   0.003661  11.092900  -0.130032  -0.792689  11.072500  -0.019916   0.001338   7.374210  -0.012140   0.005195  13.424800  -1.222260  -5.176260  13.473600   0.001499  -0.001896   8.973420   0.000700   0.000528  11.984700  -3.267560 -15.354000  18.676900   0.015851  -0.018647  12.438900   0.007595  -0.014902  -0.123089  15.733300   4.164990  -0.596024   0.537221  13.401400  -2.921300  -4.850720   8.707890   0.000000   0.000000   0.000000   3.167890   8.874780  -4.380580  -4.241910  12.355600  -4.642200  -8.121320  -2.246880   5.132780  -0.000000   0.000000   0.000000
  4.179680  90.059700   0.534322  -4.741410 -14.065800  -9.779610  -0.962296   9.379190   0.950255  -2.128300  18.739300   2.105780   2.906430   4.996290  -0.253708   4.872390  10.036600  39.774400  -5.292250  -1.383370   4.500710 -64.205800  25.961300  -9.053670  -4.786500  -9.237170 -15.263000  14.661400   5.107150   9.239230  38.144600  27.699000 -64.793900 -26.446700  -0.009105  -0.003291  -8.223340  -0.003637   0.001793 -30.646800   7.957670 -13.151800 -25.825700   0.006213  -0.003167 -18.078000   0.005474  -0.000824 -28.635100   1.540180  -2.818130 -38.531300  -0.003328  -0.004815 -25.661800  -0.008287  -0.003037 -27.649300   1.491410  -2.844150 -30.150500   0.000400  -0.001459 -20.080200   0.001235  -0.002550 -28.555400   0.672402  -1.235480 -42.842900   0.002630  -0.004461 -28.533400  -0.001232  -0.002663  14.393200   2.902610   9.099740  33.434300  22.023700  38.907800 -28.320800  -6.282780  84.862400 -93.441000  30.195200  82.028300 -31.878100  29.424400  69.729100  36.984200   0.007378  -0.017011  13.489700   0.003406  -0.010376  15.162900   2.535530   9.203880  12.562400  -0.010413   0.004714   8.793630  -0.004800   0.003682  11.053600  -0.768086  -4.214620  11.082300  -0.014367   0.000926   7.380760  -0.008668   0.005335  13.601600  -2.017730  -8.407470  13.745300   0.007964  -0.001051   9.154340   0.004730  -0.000111  12.188600  -4.065630 -18.265500  19.255900   0.032313  -0.028343  12.824400   0.016413  -0.023500  -0.058719  15.759700   4.169790  -0.576283   0.524859  13.522100  -2.931070  -4.909840   8.714890  -0.000000   0.000000  -0.000000   3.251170   8.839010  -4.445950  -4.240350  12.277400  -4.488710  -8.165520  -2.247670   5.160660   0.000000   0.000000   0.000000
  3.996660  90.058200   0.558722  -4.766030 -14.010700  -9.776110  -0.988032   9.331540   1.009390  -2.190630  18.642400   2.230280   3.412930   5.081460  -0.302626   5.956020  10.134900  39.736000  -5.274030  -1.357980   4.546480 -64.229100  25.941700  -9.287480  -4.712640  -9.377390 -15.095500  14.669200   5.004150   9.264170  38.184300  27.564100 -64.709300 -26.320400  -0.000840   0.000022  -8.160210  -0.003546   0.001599 -30.658600   8.032410 -13.264400 -25.848800   0.002915  -0.003248 -18.094200   0.004246  -0.000860 -28.638400   1.603770  -2.933850 -38.641800  -0.002980  -0.004963 -25.735400  -0.008719  -0.003157 -27.663000   1.553510  -2.960660 -30.239400   0.000358  -0.001551 -20.139400   0.000601  -0.002544 -28.616000   0.735267  -1.347660 -42.935700   0.003023  -0.004649 -28.595200  -0.000941  -0.002853  14.341700   2.961170   9.049640  33.099500  21.795000  38.795300 -28.346400  -5.853080  85.365000 -93.244500  30.064800  81.170600 -31.191300  28.913000  68.787900  38.047300   0.008888  -0.012350  13.987900   0.003234  -0.007814  15.164400   1.770060   6.445780  12.457100  -0.008290   0.004677   8.719960  -0.004285   0.003693  10.567900  -1.309990  -7.239250  10.639500  -0.003271   0.000753   7.085860  -0.001844   0.005434  13.697300  -2.633920 -10.947800  13.950800   0.011103  -0.000172   9.291190   0.006854  -0.000814  12.692700  -4.867740 -20.716800  20.357100   0.040066  -0.024688  13.557800   0.021514  -0.022201   0.018535  15.782200   4.172110  -0.536597   0.520023  13.614500  -2.955060  -4.946610   8.651120  -0.000000   0.000000  -0.000000   3.350370   8.870480  -4.536430  -4.224330  12.166400  -4.388530  -8.218780  -2.246400   5.156640  -0.000000   0.000000   0.000000
  3.803980  90.053400   0.596921  -4.802470 -13.986900  -9.767200  -1.010610   9.301650   1.039930  -2.239990  18.581400   2.294830   3.858400   5.104000  -0.343533   6.474190  10.200000  39.375000  -5.261660  -1.319700   4.619450 -64.252800  25.899900  -9.422040  -4.637540  -9.470910 -15.055300  14.679100   4.836390   9.268760  38.242000  27.517100 -64.679300 -26.130800   0.004464   0.002289  -8.065420  -0.003464   0.001433 -30.663200   8.118180 -13.397700 -25.868800   0.000074  -0.003313 -18.108200   0.002991  -0.000895 -28.641900   1.673000  -3.059800 -38.776900  -0.002930  -0.005112 -25.825400  -0.009167  -0.003280 -27.679500   1.621260  -3.087400 -30.349300   0.000222  -0.001640 -20.212600  -0.000062  -0.002542 -28.690600   0.805503  -1.471830 -43.050300   0.003080  -0.004855 -28.671500  -0.000798  -0.003053  14.327200   2.998570   9.029960  33.238300  21.444400  38.565200 -28.160100  -5.565620  85.665600 -93.316900  29.864700  79.534700 -30.733700  28.713300  68.226500  38.755600   0.009685  -0.007689  14.354300   0.003037  -0.005252  14.968000   1.001620   3.778430  12.270000  -0.006167   0.004607   8.589010  -0.003964   0.003695  10.053400  -1.767490  -9.794020  10.196700   0.004496   0.000725   6.790960   0.002921   0.005502  13.831600  -3.096500 -12.419100  14.171300   0.011924   0.000724   9.438060   0.007501  -0.001220  13.378600  -5.687800 -22.776600  21.771000   0.046545  -0.021032  14.499500   0.025942  -0.020903   0.114590  15.838500   4.173910  -0.503024   0.506353  13.656900  -2.994950  -4.972450   8.527000  -0.000000   0.000000  -0.000000   3.460820   8.946940  -4.629480  -4.190950  12.032500  -4.347990  -8.280710  -2.237510   5.128500   0.000000   0.000000   0.000000
  3.602200  90.043500   0.636619  -4.828020 -13.991900  -9.665850  -1.030230   9.296220   1.039320  -2.278090  18.569900   2.294240   4.216980   5.059730  -0.374132   6.931700  10.121100  37.469700  -5.272750  -1.301440   4.682520 -64.279200  25.734500  -9.406000  -4.576030  -9.488150 -15.263000  14.710500   4.562330   9.234260  38.350200  27.591900 -64.713200 -25.945800   0.003591   0.001861  -7.972900  -0.003388   0.001299 -30.697200   8.224980 -13.548200 -25.916300  -0.001231  -0.003374 -18.141400   0.001709  -0.000925 -28.647800   1.745170  -3.190510 -38.989600  -0.003029  -0.005259 -25.967100  -0.009639  -0.003402 -27.706900   1.692720  -3.218540 -30.528200   0.000101  -0.001729 -20.331700  -0.000781  -0.002542 -28.809600   0.885398  -1.607830 -43.232800   0.002951  -0.005076 -28.793000  -0.000734  -0.003271  14.378000   2.986830   9.050270  33.700200  21.229000  38.296700 -27.849900  -5.610270  85.517900 -94.233200  29.650100  77.799600 -30.519600  28.673100  67.951600  39.396200   0.010987  -0.014410  14.805600   0.002821  -0.014412  14.817400   0.445294   1.887980  12.110500  -0.016843   0.004530   8.477340  -0.011282   0.003686  10.102700  -2.070670 -11.251900  10.308700  -0.006681   0.000748   6.865560  -0.004506   0.005537  14.234300  -3.312760 -12.649500  14.602200   0.000710   0.001168   9.725030   0.000333   0.000252  14.249200  -6.466220 -24.070000  23.409400   0.057271  -0.024129  15.590700   0.031730  -0.025504   0.229652  16.016700   4.176420  -0.476835   0.415339  13.651500  -3.048090  -4.995140   8.384370  -0.000000   0.000000   0.000000   3.584760   9.061280  -4.715080  -4.148250  11.881700  -4.348750  -8.356200  -2.209590   5.050950  -0.000000   0.000000   0.000000
  3.399730  90.032300   0.678266  -4.836760 -14.005000  -9.490830  -1.048110   9.295460   1.035120  -2.315500  18.568300   2.291200   4.479030   4.962880  -0.387918   7.500130   9.894260  34.149100  -5.297840  -1.280310   4.718360 -64.297100  25.477600  -9.366250  -4.575690  -9.473570 -15.671100  14.731200   4.207600   9.172130  38.590100  27.770500 -64.806400 -25.773800   0.001923   0.001039  -7.886910  -0.003329   0.001198 -30.721600   8.290170 -13.637900 -25.948500  -0.002019  -0.003408 -18.163900   0.000401  -0.000953 -28.655300   1.786540  -3.265320 -39.195600  -0.003723  -0.005406 -26.104300  -0.010138  -0.003530 -27.736000   1.733860  -3.293520 -30.706500  -0.000361  -0.001818 -20.450500  -0.001582  -0.002545 -28.928300   0.932747  -1.687350 -43.413400   0.002159  -0.005318 -28.913300  -0.000725  -0.003503  14.486400   2.924620   9.070160  34.571800  21.048800  37.959400 -27.398500  -5.778620  85.101500 -95.558400  29.615800  75.716700 -30.120500  28.457500  67.545700  40.022800   0.011742  -0.021131  15.350200   0.002572  -0.023572  14.606000  -0.060765   0.100008  11.907700  -0.032358   0.004446   8.335410  -0.021889   0.003661  10.189900  -2.240620 -12.115400  10.420700  -0.026480   0.000802   6.940150  -0.017624   0.005551  14.514600  -3.360050 -12.682700  14.890000  -0.021366   0.002504   9.916700  -0.013750   0.004055  15.105300  -7.245570 -25.159700  25.022500   0.064032  -0.027225  16.665000   0.035173  -0.030105   0.360127  16.147100   4.177950  -0.453793   0.338022  13.614700  -3.113430  -5.015380   8.234630  -0.000000   0.000000  -0.000000   3.709510   9.195400  -4.762060  -4.098570  11.731400  -4.368660  -8.437670  -2.175950   4.928550  -0.000000   0.000000   0.000000
